 http://img51.imageshack.us/img51/7381/gagzwx.jpg

Country.......: USA
Genre.........: Music, Musical, Pop
Date release..: 07.05.2011 [World]
Director......: Laurieann Gibson
Writers.......: Laurieann Gibson
Duration......: 114 min.
More..........: http://www.imdb.com/title/tt1843961
Trailer.......: http://www.imdb.com/video/imdb/vi4029193497
Trailer.......:

Pilot :
A live concert performance of Grammy-winning pop sensation Lady Gaga at Madison Square Garden in New York City. 
Tracklist:
01. Jumping Film
02. Dance In the Dark
03. Glitter and Grease
04. Just Dance
05. Beautiful, Dirty, Rich
06. The Fame
07. Puke Film
08. LoveGame
09. Boys Boys Boys
10. Money Honey
11. Telephone
12. You and I
13. Twister Film
14. So Happy I Could Die
15. Antler Film
16. Monster
17. Teeth
18. Alejandro
19. Monster Film (Manifesto of Little Monsters)
20. Poker Face
21. Apocalyptic Film
22. Battling a Paparazzo (Paparazzi)
Encore:
23. Bad Romance
24. Born This Way
25. Fan Film

Cats :
Lady Gaga   	 ...  	Herself 

Data Technical :
!!! SAMPLE !!!
Audio.....: English
Subtitles.: None
Format                           : AVI
Format/Info                      : Audio Video Interleave
Format profile                   : OpenDML
File size                        : 2.04 GiB
Duration                         : 1h 54mn
Overall bit rate                 : 2 552 Kbps
Writing application              : VirtualDubMod 1.5.10.2 (build 2540/release)
Writing library                  : VirtualDubMod build 2540/release
Video
ID                               : 0
Format                           : MPEG-4 Visual
Format profile                   : Advanced Simple@L5
Format settings, BVOP            : Yes
Format settings, QPel            : No
Format settings, GMC             : No warppoints
Format settings, Matrix          : Custom
Muxing mode                      : Packed bitstream
Codec ID                         : XVID
Codec ID/Hint                    : XviD
Duration                         : 1h 54mn
Bit rate                         : 2 153 Kbps
Width                            : 720 pixels
Height                           : 408 pixels
Display aspect ratio             : 16:9
Frame rate                       : 29.970 fps
Color space                      : YUV
Chroma subsampling               : 4:2:0
Bit depth                        : 8 bits
Scan type                        : Progressive
Bits/(Pixel*Frame)               : 0.245
Stream size                      : 1.72 GiB (84%)
Writing library                  : XviD 1.2.1 (UTC 2008-12-04)
Audio
ID                               : 1
Format                           : AC-3
Format/Info                      : Audio Coding 3
Mode extension                   : CM (complete main)
Codec ID                         : 2000
Duration                         : 1h 54mn
Bit rate mode                    : Constant
Bit rate                         : 384 Kbps
Channel(s)                       : 6 channels
Channel positions                : Front: L C R, Side: L R, LFE
Sampling rate                    : 48.0 KHz
Bit depth                        : 16 bits
Stream size                      : 314 MiB (15%)
Alignment                        : Split accross interleaves
Interleave, duration             : 33 ms (1.00 video frame)
Interleave, preload duration     : 500 ms

Screen : 
http://img857.imageshack.us/img857/8365/ladygagapresentsthemons.jpg 
http://img220.imageshack.us/img220/6943/ladygagapresentsthemonsv.jpg 
http://img718.imageshack.us/img718/8365/ladygagapresentsthemons.jpg 
http://img864.imageshack.us/img864/1741/ladygagapresentsthemonsh.jpg 
http://img148.imageshack.us/img148/8365/ladygagapresentsthemons.jpg